<?xml version="1.0" standalone="no"?>
<!DOCTYPE svg PUBLIC "-//W3C//DTD SVG 20010904//EN"
 "http://www.w3.org/TR/2001/REC-SVG-20010904/DTD/svg10.dtd">
<svg version="1.0" xmlns="http://www.w3.org/2000/svg"
 width="973.000000pt" height="256.000000pt" viewBox="0 0 973.000000 256.000000"
 preserveAspectRatio="xMidYMid meet">

<g transform="translate(0.000000,256.000000) scale(0.100000,-0.100000)"
fill="#000000" stroke="none">
<path d="M1292 2008 c-7 -7 -12 -20 -12 -30 0 -19 66 -88 85 -88 16 0 85 73
85 91 0 34 -52 53 -77 28 -8 -8 -13 -8 -17 0 -9 15 -49 14 -64 -1z"/>
<path d="M1002 1814 c-12 -8 -22 -26 -22 -39 0 -27 45 -84 84 -104 23 -13 28
-11 66 19 66 52 76 111 24 131 -18 6 -31 5 -49 -7 -22 -14 -26 -14 -47 0 -28
20 -28 20 -56 0z"/>
<path d="M2382 1328 l3 -433 93 -3 92 -3 0 191 0 190 178 -2 177 -3 2 -185 2
-185 90 -3 91 -3 0 436 0 435 -90 0 -90 0 0 -165 0 -165 -180 0 -180 0 0 165
0 165 -95 0 -95 0 2 -432z"/>
<path d="M4670 1325 l0 -435 85 0 85 0 0 435 0 435 -85 0 -85 0 0 -435z"/>
<path d="M5410 1325 l0 -435 85 0 85 0 0 193 c0 105 5 209 10 229 16 56 60 88
124 88 102 0 116 -37 116 -313 l0 -198 83 3 82 3 0 245 c0 243 0 246 -25 295
-35 67 -95 99 -189 99 -73 0 -115 -16 -168 -67 l-33 -31 0 162 0 162 -85 0
-85 0 0 -435z"/>
<path d="M6152 1328 l3 -433 93 -3 92 -3 0 161 0 160 148 0 c142 0 149 1 209
29 104 49 150 138 141 269 -8 110 -55 179 -153 224 -47 22 -64 23 -293 26
l-242 3 2 -433z m445 265 c44 -21 67 -70 60 -131 -9 -86 -61 -112 -219 -112
l-98 0 0 130 0 130 111 0 c83 0 120 -4 146 -17z"/>
<path d="M7672 1328 l3 -433 83 -3 82 -3 0 436 0 435 -85 0 -85 0 2 -432z"/>
<path d="M5030 1615 l0 -95 -55 0 -55 0 0 -54 0 -55 53 -3 52 -3 5 -221 c6
-245 5 -244 75 -275 29 -13 65 -19 128 -19 l87 0 0 65 0 65 -44 0 c-74 0 -76
5 -76 211 l0 179 60 0 60 0 0 55 0 55 -60 0 -60 0 0 95 0 95 -85 0 -85 0 0
-95z"/>
<path d="M1530 1652 c-8 -3 -23 -11 -32 -19 -15 -13 -19 -13 -40 1 -49 35
-108 9 -108 -48 0 -39 13 -59 71 -105 l51 -41 30 18 c45 26 108 99 108 125 0
44 -42 81 -80 69z"/>
<path d="M530 1553 c-69 -25 -151 -113 -174 -187 -26 -82 -18 -174 22 -259 56
-121 221 -346 321 -440 59 -55 81 -58 173 -23 69 26 248 113 248 121 0 3 -18
23 -40 45 -21 21 -52 63 -67 92 -24 46 -28 65 -28 138 0 69 4 93 23 127 52 98
138 160 236 170 41 4 65 0 114 -20 34 -13 62 -21 62 -17 0 4 -20 30 -45 58
-106 118 -253 121 -404 8 -19 -14 -38 -26 -42 -26 -4 0 -23 26 -43 58 -43 71
-109 136 -158 157 -47 19 -140 18 -198 -2z"/>
<path d="M3490 1531 c-93 -19 -173 -82 -222 -173 -20 -37 -23 -57 -23 -153 0
-100 2 -115 27 -160 54 -101 140 -155 264 -163 133 -8 237 45 289 149 14 26
25 51 25 54 0 3 -32 5 -71 5 -64 0 -73 -2 -91 -25 -29 -38 -74 -57 -134 -57
-83 -1 -130 40 -141 122 l-6 40 228 0 228 0 -5 68 c-6 76 -37 156 -82 209 -54
64 -192 104 -286 84z m131 -137 c28 -14 68 -79 69 -111 0 -10 -35 -13 -140
-13 -139 0 -140 0 -140 23 0 34 37 87 73 102 43 19 101 19 138 -1z"/>
<path d="M4170 1530 c-98 -18 -162 -59 -191 -124 -33 -73 -31 -76 66 -76 71 0
85 3 85 16 0 8 13 29 29 45 26 26 36 29 91 29 51 0 65 -4 85 -25 30 -29 32
-68 6 -94 -19 -19 -53 -28 -200 -50 -99 -15 -150 -44 -178 -101 -71 -139 19
-269 187 -270 79 0 126 12 174 45 20 14 38 25 40 25 2 0 6 -14 10 -30 l6 -31
82 3 c68 2 82 6 78 18 -2 8 -7 125 -10 260 -3 170 -9 252 -18 267 -17 30 -69
68 -112 81 -49 16 -177 22 -230 12z m176 -463 c-17 -43 -52 -67 -105 -74 -79
-11 -131 21 -131 80 0 35 26 71 57 81 10 3 54 12 97 21 43 8 82 17 85 21 13
13 11 -96 -3 -129z"/>
<path d="M8140 1527 c-30 -7 -72 -23 -92 -35 -70 -44 -100 -160 -58 -229 25
-42 74 -66 199 -97 112 -27 164 -52 169 -80 7 -35 -8 -64 -42 -80 -83 -39
-175 -4 -200 77 -5 15 -16 17 -83 15 l-78 -3 3 -29 c12 -114 126 -186 292
-186 95 0 163 20 214 61 47 40 66 82 66 149 0 104 -50 144 -235 190 -121 29
-155 48 -155 85 0 38 30 55 97 55 66 0 113 -25 113 -61 0 -17 8 -19 84 -19
l84 0 -8 35 c-15 66 -67 120 -140 144 -54 18 -169 22 -230 8z"/>
<path d="M8840 1525 c-151 -42 -238 -173 -228 -344 8 -129 69 -226 171 -272
44 -20 68 -24 152 -24 116 1 157 16 219 85 32 36 66 95 66 115 0 3 -32 5 -70
5 -68 0 -72 -1 -101 -34 -51 -58 -166 -67 -223 -18 -23 21 -46 73 -46 107 l0
25 226 0 227 0 -5 73 c-5 82 -38 160 -90 214 -65 67 -194 96 -298 68z m158
-135 c18 -11 40 -36 48 -55 27 -66 29 -65 -127 -65 l-141 0 5 30 c9 44 37 81
72 96 45 20 105 17 143 -6z"/>
<path d="M6952 1268 c3 -239 4 -255 25 -294 33 -62 80 -87 174 -92 65 -4 85
-1 123 18 25 12 57 35 70 51 l25 29 3 -42 3 -43 78 -3 77 -3 0 316 0 315 -84
0 -85 0 -3 -220 -3 -220 -31 -31 c-37 -36 -97 -48 -145 -29 -53 22 -59 53 -59
290 l0 210 -86 0 -85 0 3 -252z"/>
<path d="M1590 1328 c-40 -20 -62 -44 -123 -132 -13 -19 -16 -18 -73 17 -35
22 -78 39 -106 43 -117 16 -228 -86 -228 -208 0 -101 41 -167 149 -239 98 -66
289 -159 338 -166 37 -5 41 -2 108 69 83 87 190 241 216 309 47 123 4 250
-104 304 -63 31 -119 32 -177 3z"/>
</g>
</svg>
